solid ring v2 exploded
facet normal 0.6546536707079752 0.3779644730092319 -0.6546536707079763
  outer loop
    vertex 15.300000000000002 8.313843876330608 -2.800000000000014
    vertex 14.400000000000004 8.313843876330608 -3.700000000000011
    vertex 14.849999999999996 9.093266739736606 -2.800000000000014
  endloop
endfacet
facet normal -5.678702908897271e-16 0.999998176322278 0.0019098042094313579
  outer loop
    vertex 13.300000000000013 6.995034500000009 1.7999999999999896
    vertex 14.799999999999999 7.000000000000003 -0.8000000000000134
    vertex 12.317521000000005 7.000000000000001 -0.8000000000000134
  endloop
endfacet
facet normal 0.011561222499711924 0.9999046304746605 0.00755434243630948
  outer loop
    vertex 13.300000000000013 6.995034500000009 1.7999999999999896
    vertex 14.799999999999919 6.9801380000000055 1.7999999999999579
    vertex 14.799999999999999 7.000000000000003 -0.8000000000000134
  endloop
endfacet
facet normal 0.011561222499711924 0.9999046304746605 0.00755434243630948
  outer loop
    vertex 14.799999999999919 6.9801380000000055 1.7999999999999579
    vertex 13.300000000000013 6.995034500000009 1.7999999999999896
    vertex 14.49999999999992 6.980137999999997 2.099999999999953
  endloop
endfacet
facet normal 0.011561222499711924 0.9999046304746605 0.00755434243630948
  outer loop
    vertex 14.49999999999992 6.980137999999997 2.099999999999953
    vertex 13.300000000000013 6.995034500000009 1.7999999999999896
    vertex 13.600000000000012 6.9950345000000125 2.099999999999984
  endloop
endfacet
facet normal -0.871726754546565 -0.4899340461858522 0.0075561759953057354
  outer loop
    vertex -12.857877577348596 8.280428241468366 2.099999999999984
    vertex -13.462177826491072 9.317175976009686 -0.8000000000000134
    vertex -12.707877577348594 8.020620620333037 1.7999999999999896
  endloop
endfacet
facet normal -0.871726754546565 -0.4899340461858522 0.0075561759953057354
  outer loop
    vertex -13.462177826491072 9.317175976009686 -0.8000000000000134
    vertex -12.857877577348596 8.280428241468366 2.099999999999984
    vertex -13.294976829921062 9.067299354874288 2.099999999999953
  endloop
endfacet
facet normal -0.871726754546565 -0.4899340461858522 0.0075561759953057354
  outer loop
    vertex -13.462177826491072 9.317175976009686 -0.8000000000000134
    vertex -13.294976829921062 9.067299354874288 2.099999999999953
    vertex -13.44497682992107 9.327106976009617 1.7999999999999579
  endloop
endfacet
facet normal -0.8660238244332026 -0.49999908816113964 0.0019098042094306546
  outer loop
    vertex -13.462177826491072 9.317175976009686 -0.8000000000000134
    vertex -12.220938326491073 7.167286097648302 -0.8000000000000134
    vertex -12.707877577348594 8.020620620333037 1.7999999999999896
  endloop
endfacet
facet normal -9.917399421755625e-20 0.999998176322278 0.0019098042094316855
  outer loop
    vertex -13.300000000000013 6.9950345000000045 1.7999999999999896
    vertex -12.317521000000005 6.999999999999998 -0.8000000000000134
    vertex -14.799999999999999 6.999999999999998 -0.8000000000000134
  endloop
endfacet
facet normal -0.011561222499711924 0.9999046304746605 0.00755434243630948
  outer loop
    vertex -14.799999999999919 6.980138000000001 1.7999999999999579
    vertex -13.300000000000013 6.9950345000000045 1.7999999999999896
    vertex -14.799999999999999 6.999999999999998 -0.8000000000000134
  endloop
endfacet
facet normal -0.011561222499711924 0.9999046304746605 0.00755434243630948
  outer loop
    vertex -13.300000000000013 6.9950345000000045 1.7999999999999896
    vertex -14.799999999999919 6.980138000000001 1.7999999999999579
    vertex -14.49999999999992 6.980137999999992 2.099999999999953
  endloop
endfacet
facet normal -0.011561222499711924 0.9999046304746605 0.00755434243630948
  outer loop
    vertex -13.300000000000013 6.9950345000000045 1.7999999999999896
    vertex -14.49999999999992 6.980137999999992 2.099999999999953
    vertex -13.600000000000012 6.995034500000009 2.099999999999984
  endloop
endfacet
facet normal -0.6546536707079765 0.37796447300922703 -0.6546536707079779
  outer loop
    vertex -14.400000000000002 8.313843876330608 -3.700000000000011
    vertex -15.300000000000002 8.313843876330605 -2.800000000000014
    vertex -14.850000000000001 9.093266739736602 -2.800000000000014
  endloop
endfacet
facet normal -0.8660254037844387 0.5000000000000002 0.0
  outer loop
    vertex -14.850000000000001 9.093266739736602 -0.8000000000000134
    vertex -15.300000000000002 8.313843876330605 -2.800000000000014
    vertex -15.300000000000002 8.313843876330605 -0.8000000000000134
  endloop
endfacet
facet normal -0.8660254037844387 0.5000000000000002 0.0
  outer loop
    vertex -15.300000000000002 8.313843876330605 -2.800000000000014
    vertex -14.850000000000001 9.093266739736602 -0.8000000000000134
    vertex -14.850000000000001 9.093266739736602 -2.800000000000014
  endloop
endfacet
facet normal -0.8660238244332031 -0.4999990881611391 0.0019098042094312202
  outer loop
    vertex 0.09658267350894366 -14.167286097648306 -0.8000000000000134
    vertex 1.3378221735089404 -16.31717597600969 -0.8000000000000134
    vertex 0.5921224226514324 -15.015655120333047 1.7999999999999896
  endloop
endfacet
facet normal -0.8601657396573599 -0.5099586848967572 0.007552484232178196
  outer loop
    vertex 1.3550231700788655 -16.307244976009624 1.7999999999999579
    vertex 0.5921224226514324 -15.015655120333047 1.7999999999999896
    vertex 1.3378221735089404 -16.31717597600969 -0.8000000000000134
  endloop
endfacet
facet normal -0.8601657396573599 -0.5099586848967572 0.007552484232178196
  outer loop
    vertex 0.5921224226514324 -15.015655120333047 1.7999999999999896
    vertex 1.3550231700788655 -16.307244976009624 1.7999999999999579
    vertex 1.2050231700788727 -16.047437354874287 2.099999999999953
  endloop
endfacet
facet normal -0.8601657396573599 -0.5099586848967572 0.007552484232178196
  outer loop
    vertex 0.5921224226514324 -15.015655120333047 1.7999999999999896
    vertex 1.2050231700788727 -16.047437354874287 2.099999999999953
    vertex 0.74212242265143 -15.275462741468377 2.099999999999984
  endloop
endfacet
facet normal 0.3535533905932556 -0.612372435695763 0.7071067811865839
  outer loop
    vertex -12.707877577348594 8.020620620333037 1.7999999999999896
    vertex -0.7421224226514161 15.275462741468377 2.099999999999984
    vertex -12.857877577348596 8.280428241468366 2.099999999999984
  endloop
endfacet
facet normal 0.3535533905932556 -0.612372435695763 0.7071067811865839
  outer loop
    vertex -0.7421224226514161 15.275462741468377 2.099999999999984
    vertex -12.707877577348594 8.020620620333037 1.7999999999999896
    vertex -0.5921224226514206 15.015655120333047 1.7999999999999896
  endloop
endfacet
facet normal 9.466546292526896e-15 0.7559289460184562 -0.6546536707079753
  outer loop
    vertex 0.4499999999999978 17.407110616067207 -2.800000000000014
    vertex -4.40619762898109e-15 16.627687752661224 -3.700000000000011
    vertex -0.45000000000000356 17.407110616067218 -2.800000000000014
  endloop
endfacet
facet normal -0.35355339059327406 0.6123724356957946 -0.7071067811865474
  outer loop
    vertex -0.45000000000000356 17.407110616067218 -2.800000000000014
    vertex -14.400000000000002 8.313843876330608 -3.700000000000011
    vertex -14.850000000000001 9.093266739736602 -2.800000000000014
  endloop
endfacet
facet normal -0.35355339059327406 0.6123724356957946 -0.7071067811865474
  outer loop
    vertex -14.400000000000002 8.313843876330608 -3.700000000000011
    vertex -0.45000000000000356 17.407110616067218 -2.800000000000014
    vertex -4.40619762898109e-15 16.627687752661224 -3.700000000000011
  endloop
endfacet
facet normal -0.5000000000000002 0.8660254037844387 3.0247179209488116e-14
  outer loop
    vertex -13.44497682992107 9.327106976009617 1.7999999999999579
    vertex -1.3378221735089266 16.31717597600969 -0.8000000000000134
    vertex -13.462177826491072 9.317175976009686 -0.8000000000000134
  endloop
endfacet
facet normal -0.5000000000000002 0.8660254037844387 3.0247179209488116e-14
  outer loop
    vertex -1.3378221735089266 16.31717597600969 -0.8000000000000134
    vertex -13.44497682992107 9.327106976009617 1.7999999999999579
    vertex -1.3550231700788515 16.307244976009624 1.7999999999999579
  endloop
endfacet
facet normal -0.5000000000000003 0.8660254037844387 -0.0
  outer loop
    vertex -14.850000000000001 9.093266739736602 -0.8000000000000134
    vertex -0.45000000000000356 17.407110616067218 -2.800000000000014
    vertex -14.850000000000001 9.093266739736602 -2.800000000000014
  endloop
endfacet
facet normal -0.5000000000000003 0.8660254037844387 -0.0
  outer loop
    vertex -0.45000000000000356 17.407110616067218 -2.800000000000014
    vertex -14.850000000000001 9.093266739736602 -0.8000000000000134
    vertex -0.45000000000000356 17.407110616067218 -0.8000000000000134
  endloop
endfacet
facet normal 0.8601657396573602 0.5099586848967567 0.007552484232178219
  outer loop
    vertex -1.3378221735089266 16.31717597600969 -0.8000000000000134
    vertex -0.7421224226514161 15.275462741468377 2.099999999999984
    vertex -0.5921224226514206 15.015655120333047 1.7999999999999896
  endloop
endfacet
facet normal 0.8601657396573602 0.5099586848967567 0.007552484232178219
  outer loop
    vertex -0.7421224226514161 15.275462741468377 2.099999999999984
    vertex -1.3378221735089266 16.31717597600969 -0.8000000000000134
    vertex -1.2050231700788596 16.047437354874287 2.099999999999953
  endloop
endfacet
facet normal 0.8601657396573602 0.5099586848967567 0.007552484232178219
  outer loop
    vertex -1.2050231700788596 16.047437354874287 2.099999999999953
    vertex -1.3378221735089266 16.31717597600969 -0.8000000000000134
    vertex -1.3550231700788515 16.307244976009624 1.7999999999999579
  endloop
endfacet
facet normal 0.8660238244332032 0.4999990881611386 0.0019098042094316306
  outer loop
    vertex -1.3378221735089266 16.31717597600969 -0.8000000000000134
    vertex -0.5921224226514206 15.015655120333047 1.7999999999999896
    vertex -0.09658267350893115 14.167286097648306 -0.8000000000000134
  endloop
endfacet
facet normal 0.3535533905932779 -0.6123724356958015 -0.7071067811865395
  outer loop
    vertex 1.233735336114705e-15 14.780166891254423 -3.700000000000011
    vertex -11.9 6.870468203356546 -2.800000000000014
    vertex -12.800000000000008 7.390083445627207 -3.700000000000011
  endloop
endfacet
facet normal 0.3535533905932779 -0.6123724356958015 -0.7071067811865395
  outer loop
    vertex -11.9 6.870468203356546 -2.800000000000014
    vertex 1.233735336114705e-15 14.780166891254423 -3.700000000000011
    vertex -2.996214387707141e-15 13.740936406713095 -2.800000000000014
  endloop
endfacet
facet normal 1.2533184366879526e-14 1.0 -0.0
  outer loop
    vertex -0.45000000000000356 17.407110616067218 -0.8000000000000134
    vertex 0.4499999999999978 17.407110616067207 -2.800000000000014
    vertex -0.45000000000000356 17.407110616067218 -2.800000000000014
  endloop
endfacet
facet normal 1.2533184366879526e-14 1.0 -0.0
  outer loop
    vertex 0.4499999999999978 17.407110616067207 -2.800000000000014
    vertex -0.45000000000000356 17.407110616067218 -0.8000000000000134
    vertex 0.4499999999999978 17.407110616067207 -0.8000000000000134
  endloop
endfacet
facet normal 0.4677207740391358 -0.8101161443912254 0.35348141412092243
  outer loop
    vertex -0.5921224226514206 15.015655120333047 1.7999999999999896
    vertex -12.220938326491073 7.167286097648302 -0.8000000000000134
    vertex -0.09658267350893115 14.167286097648306 -0.8000000000000134
  endloop
endfacet
facet normal 0.4677207740391358 -0.8101161443912254 0.35348141412092243
  outer loop
    vertex -12.220938326491073 7.167286097648302 -0.8000000000000134
    vertex -0.5921224226514206 15.015655120333047 1.7999999999999896
    vertex -12.707877577348594 8.020620620333037 1.7999999999999896
  endloop
endfacet
facet normal 0.5000000000000003 -0.8660254037844387 0.0
  outer loop
    vertex -2.996214387707141e-15 13.740936406713095 -0.8000000000000134
    vertex -11.9 6.870468203356546 -2.800000000000014
    vertex -2.996214387707141e-15 13.740936406713095 -2.800000000000014
  endloop
endfacet
facet normal 0.5000000000000003 -0.8660254037844387 0.0
  outer loop
    vertex -11.9 6.870468203356546 -2.800000000000014
    vertex -2.996214387707141e-15 13.740936406713095 -0.8000000000000134
    vertex -11.9 6.870468203356546 -0.8000000000000134
  endloop
endfacet
facet normal -1.7233128504461054e-14 2.984865414309001e-14 1.0
  outer loop
    vertex -12.857877577348596 8.280428241468366 2.099999999999984
    vertex -1.2050231700788596 16.047437354874287 2.099999999999953
    vertex -13.294976829921062 9.067299354874288 2.099999999999953
  endloop
endfacet
facet normal -1.7233128504461054e-14 2.984865414309001e-14 1.0
  outer loop
    vertex -1.2050231700788596 16.047437354874287 2.099999999999953
    vertex -12.857877577348596 8.280428241468366 2.099999999999984
    vertex -0.7421224226514161 15.275462741468377 2.099999999999984
  endloop
endfacet
facet normal -0.35355339059326857 0.6123724356957854 0.7071067811865582
  outer loop
    vertex -13.294976829921062 9.067299354874288 2.099999999999953
    vertex -1.3550231700788515 16.307244976009624 1.7999999999999579
    vertex -13.44497682992107 9.327106976009617 1.7999999999999579
  endloop
endfacet
facet normal -0.35355339059326857 0.6123724356957854 0.7071067811865582
  outer loop
    vertex -1.3550231700788515 16.307244976009624 1.7999999999999579
    vertex -13.294976829921062 9.067299354874288 2.099999999999953
    vertex -1.2050231700788596 16.047437354874287 2.099999999999953
  endloop
endfacet
facet normal 0.353553390593275 0.612372435695797 -0.7071067811865448
  outer loop
    vertex 0.4499999999999978 17.407110616067207 -2.800000000000014
    vertex 14.400000000000004 8.313843876330608 -3.700000000000011
    vertex -4.40619762898109e-15 16.627687752661224 -3.700000000000011
  endloop
endfacet
facet normal 0.353553390593275 0.612372435695797 -0.7071067811865448
  outer loop
    vertex 14.400000000000004 8.313843876330608 -3.700000000000011
    vertex 0.4499999999999978 17.407110616067207 -2.800000000000014
    vertex 14.849999999999996 9.093266739736606 -2.800000000000014
  endloop
endfacet
facet normal -0.8660238244332032 0.4999990881611386 0.001909804209431411
  outer loop
    vertex 1.3378221735089206 16.317175976009683 -0.8000000000000134
    vertex 0.09658267350892533 14.1672860976483 -0.8000000000000134
    vertex 0.5921224226514141 15.015655120333042 1.7999999999999896
  endloop
endfacet
facet normal -0.8601657396573599 0.5099586848967568 0.007552484232178304
  outer loop
    vertex 0.7421224226514103 15.275462741468372 2.099999999999984
    vertex 1.3378221735089206 16.317175976009683 -0.8000000000000134
    vertex 0.5921224226514141 15.015655120333042 1.7999999999999896
  endloop
endfacet
facet normal -0.8601657396573599 0.5099586848967568 0.007552484232178304
  outer loop
    vertex 1.3378221735089206 16.317175976009683 -0.8000000000000134
    vertex 0.7421224226514103 15.275462741468372 2.099999999999984
    vertex 1.2050231700788536 16.04743735487428 2.099999999999953
  endloop
endfacet
facet normal -0.8601657396573599 0.5099586848967568 0.007552484232178304
  outer loop
    vertex 1.3378221735089206 16.317175976009683 -0.8000000000000134
    vertex 1.2050231700788536 16.04743735487428 2.099999999999953
    vertex 1.3550231700788458 16.307244976009617 1.7999999999999579
  endloop
endfacet
facet normal 0.49999999999999983 0.8660254037844389 -0.0
  outer loop
    vertex 0.4499999999999978 17.407110616067207 -0.8000000000000134
    vertex 14.849999999999996 9.093266739736606 -2.800000000000014
    vertex 0.4499999999999978 17.407110616067207 -2.800000000000014
  endloop
endfacet
facet normal 0.49999999999999983 0.8660254037844389 -0.0
  outer loop
    vertex 14.849999999999996 9.093266739736606 -2.800000000000014
    vertex 0.4499999999999978 17.407110616067207 -0.8000000000000134
    vertex 14.849999999999996 9.093266739736606 -0.8000000000000134
  endloop
endfacet
facet normal -4.752855645965925e-15 -0.7559289460184551 -0.6546536707079765
  outer loop
    vertex -0.44999999999999213 -17.40711061606721 -2.800000000000014
    vertex 1.9034773757198308e-14 -16.627687752661224 -3.700000000000011
    vertex 0.4500000000000196 -17.407110616067218 -2.800000000000014
  endloop
endfacet
facet normal 0.0 0.0 -1.0
  outer loop
    vertex -14.400000000000002 8.313843876330608 -3.700000000000011
    vertex -12.800000000000008 7.390083445627207 -3.700000000000011
    vertex -14.399999999999999 -8.313843876330616 -3.700000000000011
  endloop
endfacet
facet normal 0.0 0.0 -1.0
  outer loop
    vertex -12.800000000000008 7.390083445627207 -3.700000000000011
    vertex -14.400000000000002 8.313843876330608 -3.700000000000011
    vertex -4.40619762898109e-15 16.627687752661224 -3.700000000000011
  endloop
endfacet
facet normal 0.0 0.0 -1.0
  outer loop
    vertex -12.800000000000008 7.390083445627207 -3.700000000000011
    vertex -4.40619762898109e-15 16.627687752661224 -3.700000000000011
    vertex 1.233735336114705e-15 14.780166891254423 -3.700000000000011
  endloop
endfacet
facet normal 0.0 0.0 -1.0
  outer loop
    vertex 1.233735336114705e-15 14.780166891254423 -3.700000000000011
    vertex -4.40619762898109e-15 16.627687752661224 -3.700000000000011
    vertex 14.400000000000004 8.313843876330608 -3.700000000000011
  endloop
endfacet
facet normal 0.0 0.0 -1.0
  outer loop
    vertex 1.233735336114705e-15 14.780166891254423 -3.700000000000011
    vertex 14.400000000000004 8.313843876330608 -3.700000000000011
    vertex 12.800000000000004 7.390083445627214 -3.700000000000011
  endloop
endfacet
facet normal 0.0 0.0 -1.0
  outer loop
    vertex 12.800000000000004 7.390083445627214 -3.700000000000011
    vertex 14.400000000000004 8.313843876330608 -3.700000000000011
    vertex 12.80000000000001 -7.390083445627197 -3.700000000000011
  endloop
endfacet
facet normal 0.0 0.0 -1.0
  outer loop
    vertex -14.399999999999999 -8.313843876330616 -3.700000000000011
    vertex -12.799999999999999 -7.390083445627219 -3.700000000000011
    vertex 1.9034773757198308e-14 -16.627687752661224 -3.700000000000011
  endloop
endfacet
facet normal 0.0 0.0 -1.0
  outer loop
    vertex -12.799999999999999 -7.390083445627219 -3.700000000000011
    vertex -14.399999999999999 -8.313843876330616 -3.700000000000011
    vertex -12.800000000000008 7.390083445627207 -3.700000000000011
  endloop
endfacet
facet normal 0.0 0.0 -1.0
  outer loop
    vertex 1.9034773757198308e-14 -16.627687752661224 -3.700000000000011
    vertex -12.799999999999999 -7.390083445627219 -3.700000000000011
    vertex 1.1984857550828564e-14 -14.780166891254423 -3.700000000000011
  endloop
endfacet
facet normal 0.0 0.0 -1.0
  outer loop
    vertex 1.9034773757198308e-14 -16.627687752661224 -3.700000000000011
    vertex 1.1984857550828564e-14 -14.780166891254423 -3.700000000000011
    vertex 12.80000000000001 -7.390083445627197 -3.700000000000011
  endloop
endfacet
facet normal 0.0 0.0 -1.0
  outer loop
    vertex 1.9034773757198308e-14 -16.627687752661224 -3.700000000000011
    vertex 12.80000000000001 -7.390083445627197 -3.700000000000011
    vertex 14.400000000000007 -8.313843876330598 -3.700000000000011
  endloop
endfacet
facet normal 0.0 0.0 -1.0
  outer loop
    vertex 14.400000000000007 -8.313843876330598 -3.700000000000011
    vertex 12.80000000000001 -7.390083445627197 -3.700000000000011
    vertex 14.400000000000004 8.313843876330608 -3.700000000000011
  endloop
endfacet
facet normal 0.8601657396573605 -0.509958684896756 0.007552484232178138
  outer loop
    vertex -0.5921224226514106 -15.015655120333042 1.7999999999999896
    vertex -1.3550231700788407 -16.307244976009617 1.7999999999999579
    vertex -1.3378221735089157 -16.317175976009683 -0.8000000000000134
  endloop
endfacet
facet normal 0.8601657396573605 -0.509958684896756 0.007552484232178138
  outer loop
    vertex -1.3550231700788407 -16.307244976009617 1.7999999999999579
    vertex -0.5921224226514106 -15.015655120333042 1.7999999999999896
    vertex -1.205023170078848 -16.04743735487428 2.099999999999953
  endloop
endfacet
facet normal 0.8601657396573605 -0.509958684896756 0.007552484232178138
  outer loop
    vertex -1.205023170078848 -16.04743735487428 2.099999999999953
    vertex -0.5921224226514106 -15.015655120333042 1.7999999999999896
    vertex -0.7421224226514067 -15.275462741468372 2.099999999999984
  endloop
endfacet
facet normal 0.8660238244332035 -0.4999990881611382 0.0019098042094316092
  outer loop
    vertex -0.0965826735089218 -14.1672860976483 -0.8000000000000134
    vertex -0.5921224226514106 -15.015655120333042 1.7999999999999896
    vertex -1.3378221735089157 -16.317175976009683 -0.8000000000000134
  endloop
endfacet
facet normal -0.3535533905932738 -0.6123724356957954 -0.7071067811865469
  outer loop
    vertex -14.399999999999999 -8.313843876330616 -3.700000000000011
    vertex -0.44999999999999213 -17.40711061606721 -2.800000000000014
    vertex -14.849999999999996 -9.093266739736608 -2.800000000000014
  endloop
endfacet
facet normal -0.3535533905932738 -0.6123724356957954 -0.7071067811865469
  outer loop
    vertex -0.44999999999999213 -17.40711061606721 -2.800000000000014
    vertex -14.399999999999999 -8.313843876330616 -3.700000000000011
    vertex 1.9034773757198308e-14 -16.627687752661224 -3.700000000000011
  endloop
endfacet
facet normal -6.26659218343969e-15 -1.0 0.0
  outer loop
    vertex 0.4500000000000196 -17.407110616067218 -0.8000000000000134
    vertex -0.44999999999999213 -17.40711061606721 -2.800000000000014
    vertex 0.4500000000000196 -17.407110616067218 -2.800000000000014
  endloop
endfacet
facet normal -6.26659218343969e-15 -1.0 0.0
  outer loop
    vertex -0.44999999999999213 -17.40711061606721 -2.800000000000014
    vertex 0.4500000000000196 -17.407110616067218 -0.8000000000000134
    vertex -0.44999999999999213 -17.40711061606721 -0.8000000000000134
  endloop
endfacet
facet normal -1.0 -3.391892516259898e-16 0.0
  outer loop
    vertex -15.300000000000002 8.313843876330605 -0.8000000000000134
    vertex -15.299999999999997 -8.313843876330616 -2.800000000000014
    vertex -15.299999999999997 -8.313843876330616 -0.8000000000000134
  endloop
endfacet
facet normal -1.0 -3.391892516259898e-16 0.0
  outer loop
    vertex -15.299999999999997 -8.313843876330616 -2.800000000000014
    vertex -15.300000000000002 8.313843876330605 -0.8000000000000134
    vertex -15.300000000000002 8.313843876330605 -2.800000000000014
  endloop
endfacet
facet normal -0.7071067811865465 -1.8175764865429022e-16 -0.7071067811865487
  outer loop
    vertex -14.400000000000002 8.313843876330608 -3.700000000000011
    vertex -15.299999999999997 -8.313843876330616 -2.800000000000014
    vertex -15.300000000000002 8.313843876330605 -2.800000000000014
  endloop
endfacet
facet normal -0.7071067811865465 -1.8175764865429022e-16 -0.7071067811865487
  outer loop
    vertex -15.299999999999997 -8.313843876330616 -2.800000000000014
    vertex -14.400000000000002 8.313843876330608 -3.700000000000011
    vertex -14.399999999999999 -8.313843876330616 -3.700000000000011
  endloop
endfacet
facet normal -0.6546536707079761 -0.3779644730092289 -0.6546536707079772
  outer loop
    vertex -14.399999999999999 -8.313843876330616 -3.700000000000011
    vertex -14.849999999999996 -9.093266739736608 -2.800000000000014
    vertex -15.299999999999997 -8.313843876330616 -2.800000000000014
  endloop
endfacet
facet normal -3.4466257008922265e-14 -1.3825313986039042e-29 1.0
  outer loop
    vertex -14.499999999999915 -6.980138000000002 2.099999999999953
    vertex -13.600000000000012 6.995034500000009 2.099999999999984
    vertex -14.49999999999992 6.980137999999992 2.099999999999953
  endloop
endfacet
facet normal -3.4466257008922265e-14 -1.3825313986039042e-29 1.0
  outer loop
    vertex -13.600000000000012 6.995034500000009 2.099999999999984
    vertex -14.499999999999915 -6.980138000000002 2.099999999999953
    vertex -13.600000000000007 -6.995034500000019 2.099999999999984
  endloop
endfacet
facet normal -0.8660254037844374 -0.5000000000000023 0.0
  outer loop
    vertex -15.299999999999997 -8.313843876330616 -0.8000000000000134
    vertex -14.849999999999996 -9.093266739736608 -2.800000000000014
    vertex -14.849999999999996 -9.093266739736608 -0.8000000000000134
  endloop
endfacet
facet normal -0.8660254037844374 -0.5000000000000023 0.0
  outer loop
    vertex -14.849999999999996 -9.093266739736608 -2.800000000000014
    vertex -15.299999999999997 -8.313843876330616 -0.8000000000000134
    vertex -15.299999999999997 -8.313843876330616 -2.800000000000014
  endloop
endfacet
facet normal 0.7071067811865418 2.8505725274669716e-16 0.7071067811865533
  outer loop
    vertex -13.600000000000007 -6.995034500000019 2.099999999999984
    vertex -13.300000000000013 6.9950345000000045 1.7999999999999896
    vertex -13.600000000000012 6.995034500000009 2.099999999999984
  endloop
endfacet
facet normal 0.7071067811865418 2.8505725274669716e-16 0.7071067811865533
  outer loop
    vertex -13.300000000000013 6.9950345000000045 1.7999999999999896
    vertex -13.600000000000007 -6.995034500000019 2.099999999999984
    vertex -13.300000000000006 -6.9950345000000125 1.7999999999999896
  endloop
endfacet
facet normal -0.7071067811865426 -2.8627524771930906e-16 0.7071067811865525
  outer loop
    vertex -14.799999999999914 -6.980138000000011 1.7999999999999579
    vertex -14.49999999999992 6.980137999999992 2.099999999999953
    vertex -14.799999999999919 6.980138000000001 1.7999999999999579
  endloop
endfacet
facet normal -0.7071067811865426 -2.8627524771930906e-16 0.7071067811865525
  outer loop
    vertex -14.49999999999992 6.980137999999992 2.099999999999953
    vertex -14.799999999999914 -6.980138000000011 1.7999999999999579
    vertex -14.499999999999915 -6.980138000000002 2.099999999999953
  endloop
endfacet
facet normal 0.7071067811865448 2.875845433518442e-16 -0.7071067811865503
  outer loop
    vertex -11.9 6.870468203356546 -2.800000000000014
    vertex -12.799999999999999 -7.390083445627219 -3.700000000000011
    vertex -12.800000000000008 7.390083445627207 -3.700000000000011
  endloop
endfacet
facet normal 0.7071067811865448 2.875845433518442e-16 -0.7071067811865503
  outer loop
    vertex -12.799999999999999 -7.390083445627219 -3.700000000000011
    vertex -11.9 6.870468203356546 -2.800000000000014
    vertex -11.899999999999999 -6.870468203356548 -2.800000000000014
  endloop
endfacet
facet normal -1.0 -4.0342388473303334e-16 3.036886981205462e-14
  outer loop
    vertex -14.799999999999914 -6.980138000000011 1.7999999999999579
    vertex -14.799999999999999 6.999999999999998 -0.8000000000000134
    vertex -14.799999999999992 -7.000000000000007 -0.8000000000000134
  endloop
endfacet
facet normal -1.0 -4.0342388473303334e-16 3.036886981205462e-14
  outer loop
    vertex -14.799999999999999 6.999999999999998 -0.8000000000000134
    vertex -14.799999999999914 -6.980138000000011 1.7999999999999579
    vertex -14.799999999999919 6.980138000000001 1.7999999999999579
  endloop
endfacet
facet normal 0.9354415480782715 3.7488033420840705e-16 0.3534814141209223
  outer loop
    vertex -12.317521000000005 6.999999999999998 -0.8000000000000134
    vertex -13.300000000000006 -6.9950345000000125 1.7999999999999896
    vertex -12.317521 -7.000000000000004 -0.8000000000000134
  endloop
endfacet
facet normal 0.9354415480782715 3.7488033420840705e-16 0.3534814141209223
  outer loop
    vertex -13.300000000000006 -6.9950345000000125 1.7999999999999896
    vertex -12.317521000000005 6.999999999999998 -0.8000000000000134
    vertex -13.300000000000013 6.9950345000000045 1.7999999999999896
  endloop
endfacet
facet normal 1.1360381037621068e-15 -0.999998176322278 0.0019098042094310306
  outer loop
    vertex -13.300000000000006 -6.9950345000000125 1.7999999999999896
    vertex -14.799999999999992 -7.000000000000007 -0.8000000000000134
    vertex -12.317521 -7.000000000000004 -0.8000000000000134
  endloop
endfacet
facet normal -0.011561222499711206 -0.9999046304746605 0.007554342436308876
  outer loop
    vertex -13.300000000000006 -6.9950345000000125 1.7999999999999896
    vertex -14.799999999999914 -6.980138000000011 1.7999999999999579
    vertex -14.799999999999992 -7.000000000000007 -0.8000000000000134
  endloop
endfacet
facet normal -0.011561222499711206 -0.9999046304746605 0.007554342436308876
  outer loop
    vertex -14.799999999999914 -6.980138000000011 1.7999999999999579
    vertex -13.300000000000006 -6.9950345000000125 1.7999999999999896
    vertex -14.499999999999915 -6.980138000000002 2.099999999999953
  endloop
endfacet
facet normal -0.011561222499711206 -0.9999046304746605 0.007554342436308876
  outer loop
    vertex -14.499999999999915 -6.980138000000002 2.099999999999953
    vertex -13.300000000000006 -6.9950345000000125 1.7999999999999896
    vertex -13.600000000000007 -6.995034500000019 2.099999999999984
  endloop
endfacet
facet normal 1.0 2.0522374888295173e-16 -0.0
  outer loop
    vertex -11.9 6.870468203356546 -2.800000000000014
    vertex -11.899999999999999 -6.870468203356548 -0.8000000000000134
    vertex -11.899999999999999 -6.870468203356548 -2.800000000000014
  endloop
endfacet
facet normal 1.0 2.0522374888295173e-16 -0.0
  outer loop
    vertex -11.899999999999999 -6.870468203356548 -0.8000000000000134
    vertex -11.9 6.870468203356546 -2.800000000000014
    vertex -11.9 6.870468203356546 -0.8000000000000134
  endloop
endfacet
facet normal -0.8717267545465663 0.48993404618585024 0.00755617599530717
  outer loop
    vertex -13.294976829921053 -9.067299354874292 2.099999999999953
    vertex -13.462177826491066 -9.317175976009686 -0.8000000000000134
    vertex -13.444976829921062 -9.327106976009617 1.7999999999999579
  endloop
endfacet
facet normal -0.8717267545465663 0.48993404618585024 0.00755617599530717
  outer loop
    vertex -13.462177826491066 -9.317175976009686 -0.8000000000000134
    vertex -13.294976829921053 -9.067299354874292 2.099999999999953
    vertex -12.707877577348588 -8.02062062033304 1.7999999999999896
  endloop
endfacet
facet normal -0.8717267545465663 0.48993404618585024 0.00755617599530717
  outer loop
    vertex -12.707877577348588 -8.02062062033304 1.7999999999999896
    vertex -13.294976829921053 -9.067299354874292 2.099999999999953
    vertex -12.85787757734859 -8.280428241468366 2.099999999999984
  endloop
endfacet
facet normal -0.0 -0.0 1.0
  outer loop
    vertex 0.09658267350894366 -14.167286097648306 -0.8000000000000134
    vertex 11.900000000000006 -6.870468203356535 -0.8000000000000134
    vertex 1.4099832412739488e-14 -13.740936406713097 -0.8000000000000134
  endloop
endfacet
facet normal -0.0 -0.0 1.0
  outer loop
    vertex 11.900000000000006 -6.870468203356535 -0.8000000000000134
    vertex 0.09658267350894366 -14.167286097648306 -0.8000000000000134
    vertex 12.22093832649108 -7.167286097648291 -0.8000000000000134
  endloop
endfacet
facet normal -0.0 -0.0 1.0
  outer loop
    vertex 11.900000000000006 -6.870468203356535 -0.8000000000000134
    vertex 12.22093832649108 -7.167286097648291 -0.8000000000000134
    vertex 12.220938326491071 7.167286097648299 -0.8000000000000134
  endloop
endfacet
facet normal -0.0 -0.0 1.0
  outer loop
    vertex 12.220938326491071 7.167286097648299 -0.8000000000000134
    vertex 12.22093832649108 -7.167286097648291 -0.8000000000000134
    vertex 12.317521000000005 7.000000000000001 -0.8000000000000134
  endloop
endfacet
facet normal -0.0 -0.0 1.0
  outer loop
    vertex 12.220938326491071 7.167286097648299 -0.8000000000000134
    vertex 12.317521000000005 7.000000000000001 -0.8000000000000134
    vertex 13.46217782649107 9.317175976009686 -0.8000000000000134
  endloop
endfacet
facet normal -0.0 -0.0 1.0
  outer loop
    vertex 12.317521000000005 7.000000000000001 -0.8000000000000134
    vertex 12.22093832649108 -7.167286097648291 -0.8000000000000134
    vertex 12.317521000000005 -7.000000000000001 -0.8000000000000134
  endloop
endfacet
facet normal -0.0 -0.0 1.0
  outer loop
    vertex 13.46217782649107 9.317175976009686 -0.8000000000000134
    vertex 12.317521000000005 7.000000000000001 -0.8000000000000134
    vertex 14.799999999999999 7.000000000000003 -0.8000000000000134
  endloop
endfacet
facet normal -0.0 -0.0 1.0
  outer loop
    vertex -14.849999999999996 -9.093266739736608 -0.8000000000000134
    vertex -14.799999999999992 -7.000000000000007 -0.8000000000000134
    vertex -14.799999999999999 6.999999999999998 -0.8000000000000134
  endloop
endfacet
facet normal -0.0 -0.0 1.0
  outer loop
    vertex -14.799999999999992 -7.000000000000007 -0.8000000000000134
    vertex -14.849999999999996 -9.093266739736608 -0.8000000000000134
    vertex -13.462177826491066 -9.317175976009686 -0.8000000000000134
  endloop
endfacet
facet normal -0.0 -0.0 1.0
  outer loop
    vertex -13.462177826491066 -9.317175976009686 -0.8000000000000134
    vertex -14.849999999999996 -9.093266739736608 -0.8000000000000134
    vertex -0.44999999999999213 -17.40711061606721 -0.8000000000000134
  endloop
endfacet
facet normal -0.0 -0.0 1.0
  outer loop
    vertex -13.462177826491066 -9.317175976009686 -0.8000000000000134
    vertex -0.44999999999999213 -17.40711061606721 -0.8000000000000134
    vertex -1.3378221735089157 -16.317175976009683 -0.8000000000000134
  endloop
endfacet
facet normal -0.0 -0.0 1.0
  outer loop
    vertex -1.3378221735089157 -16.317175976009683 -0.8000000000000134
    vertex -0.44999999999999213 -17.40711061606721 -0.8000000000000134
    vertex -0.0965826735089218 -14.1672860976483 -0.8000000000000134
  endloop
endfacet
facet normal -0.0 -0.0 1.0
  outer loop
    vertex -0.0965826735089218 -14.1672860976483 -0.8000000000000134
    vertex -0.44999999999999213 -17.40711061606721 -0.8000000000000134
    vertex 0.4500000000000196 -17.407110616067218 -0.8000000000000134
  endloop
endfacet
facet normal -0.0 -0.0 1.0
  outer loop
    vertex -0.0965826735089218 -14.1672860976483 -0.8000000000000134
    vertex 0.4500000000000196 -17.407110616067218 -0.8000000000000134
    vertex 1.4099832412739488e-14 -13.740936406713097 -0.8000000000000134
  endloop
endfacet
facet normal -0.0 -0.0 1.0
  outer loop
    vertex 1.4099832412739488e-14 -13.740936406713097 -0.8000000000000134
    vertex 0.4500000000000196 -17.407110616067218 -0.8000000000000134
    vertex 0.09658267350894366 -14.167286097648306 -0.8000000000000134
  endloop
endfacet
facet normal -0.0 -0.0 1.0
  outer loop
    vertex 0.09658267350894366 -14.167286097648306 -0.8000000000000134
    vertex 0.4500000000000196 -17.407110616067218 -0.8000000000000134
    vertex 1.3378221735089404 -16.31717597600969 -0.8000000000000134
  endloop
endfacet
facet normal -0.0 -0.0 1.0
  outer loop
    vertex 1.3378221735089404 -16.31717597600969 -0.8000000000000134
    vertex 0.4500000000000196 -17.407110616067218 -0.8000000000000134
    vertex 14.850000000000007 -9.093266739736592 -0.8000000000000134
  endloop
endfacet
facet normal -0.0 -0.0 1.0
  outer loop
    vertex 1.3378221735089404 -16.31717597600969 -0.8000000000000134
    vertex 14.850000000000007 -9.093266739736592 -0.8000000000000134
    vertex 13.46217782649108 -9.317175976009674 -0.8000000000000134
  endloop
endfacet
facet normal -0.0 -0.0 1.0
  outer loop
    vertex 13.46217782649108 -9.317175976009674 -0.8000000000000134
    vertex 14.850000000000007 -9.093266739736592 -0.8000000000000134
    vertex 14.799999999999999 -7.000000000000004 -0.8000000000000134
  endloop
endfacet
facet normal -0.0 -0.0 1.0
  outer loop
    vertex 14.799999999999999 -7.000000000000004 -0.8000000000000134
    vertex 14.850000000000007 -9.093266739736592 -0.8000000000000134
    vertex 14.799999999999999 7.000000000000003 -0.8000000000000134
  endloop
endfacet
facet normal -0.0 -0.0 1.0
  outer loop
    vertex 14.799999999999999 7.000000000000003 -0.8000000000000134
    vertex 14.850000000000007 -9.093266739736592 -0.8000000000000134
    vertex 14.849999999999996 9.093266739736606 -0.8000000000000134
  endloop
endfacet
facet normal -0.0 -0.0 1.0
  outer loop
    vertex 14.849999999999996 9.093266739736606 -0.8000000000000134
    vertex 14.850000000000007 -9.093266739736592 -0.8000000000000134
    vertex 15.300000000000002 8.313843876330608 -0.8000000000000134
  endloop
endfacet
facet normal -0.0 -0.0 1.0
  outer loop
    vertex 15.300000000000002 8.313843876330608 -0.8000000000000134
    vertex 14.850000000000007 -9.093266739736592 -0.8000000000000134
    vertex 15.300000000000002 -8.313843876330608 -0.8000000000000134
  endloop
endfacet
facet normal -0.0 -0.0 1.0
  outer loop
    vertex -15.299999999999997 -8.313843876330616 -0.8000000000000134
    vertex -14.850000000000001 9.093266739736602 -0.8000000000000134
    vertex -15.300000000000002 8.313843876330605 -0.8000000000000134
  endloop
endfacet
facet normal -0.0 -0.0 1.0
  outer loop
    vertex -14.850000000000001 9.093266739736602 -0.8000000000000134
    vertex -15.299999999999997 -8.313843876330616 -0.8000000000000134
    vertex -14.849999999999996 -9.093266739736608 -0.8000000000000134
  endloop
endfacet
facet normal -0.0 -0.0 1.0
  outer loop
    vertex -14.850000000000001 9.093266739736602 -0.8000000000000134
    vertex -14.849999999999996 -9.093266739736608 -0.8000000000000134
    vertex -14.799999999999999 6.999999999999998 -0.8000000000000134
  endloop
endfacet
facet normal -0.0 -0.0 1.0
  outer loop
    vertex -14.850000000000001 9.093266739736602 -0.8000000000000134
    vertex -14.799999999999999 6.999999999999998 -0.8000000000000134
    vertex -13.462177826491072 9.317175976009686 -0.8000000000000134
  endloop
endfacet
facet normal -0.0 -0.0 1.0
  outer loop
    vertex -14.850000000000001 9.093266739736602 -0.8000000000000134
    vertex -13.462177826491072 9.317175976009686 -0.8000000000000134
    vertex -0.45000000000000356 17.407110616067218 -0.8000000000000134
  endloop
endfacet
facet normal -0.0 -0.0 1.0
  outer loop
    vertex -0.45000000000000356 17.407110616067218 -0.8000000000000134
    vertex -13.462177826491072 9.317175976009686 -0.8000000000000134
    vertex -1.3378221735089266 16.31717597600969 -0.8000000000000134
  endloop
endfacet
facet normal -0.0 -0.0 1.0
  outer loop
    vertex -0.45000000000000356 17.407110616067218 -0.8000000000000134
    vertex -1.3378221735089266 16.31717597600969 -0.8000000000000134
    vertex -0.09658267350893115 14.167286097648306 -0.8000000000000134
  endloop
endfacet
facet normal -0.0 -0.0 1.0
  outer loop
    vertex -0.45000000000000356 17.407110616067218 -0.8000000000000134
    vertex -0.09658267350893115 14.167286097648306 -0.8000000000000134
    vertex 0.4499999999999978 17.407110616067207 -0.8000000000000134
  endloop
endfacet
facet normal -0.0 -0.0 1.0
  outer loop
    vertex 0.4499999999999978 17.407110616067207 -0.8000000000000134
    vertex -0.09658267350893115 14.167286097648306 -0.8000000000000134
    vertex -2.996214387707141e-15 13.740936406713095 -0.8000000000000134
  endloop
endfacet
facet normal -0.0 -0.0 1.0
  outer loop
    vertex 0.4499999999999978 17.407110616067207 -0.8000000000000134
    vertex -2.996214387707141e-15 13.740936406713095 -0.8000000000000134
    vertex 0.09658267350892533 14.1672860976483 -0.8000000000000134
  endloop
endfacet
facet normal -0.0 -0.0 1.0
  outer loop
    vertex 0.4499999999999978 17.407110616067207 -0.8000000000000134
    vertex 0.09658267350892533 14.1672860976483 -0.8000000000000134
    vertex 1.3378221735089206 16.317175976009683 -0.8000000000000134
  endloop
endfacet
facet normal -0.0 -0.0 1.0
  outer loop
    vertex 0.4499999999999978 17.407110616067207 -0.8000000000000134
    vertex 1.3378221735089206 16.317175976009683 -0.8000000000000134
    vertex 14.849999999999996 9.093266739736606 -0.8000000000000134
  endloop
endfacet
facet normal -0.0 -0.0 1.0
  outer loop
    vertex 14.849999999999996 9.093266739736606 -0.8000000000000134
    vertex 1.3378221735089206 16.317175976009683 -0.8000000000000134
    vertex 13.46217782649107 9.317175976009686 -0.8000000000000134
  endloop
endfacet
facet normal -0.0 -0.0 1.0
  outer loop
    vertex 14.849999999999996 9.093266739736606 -0.8000000000000134
    vertex 13.46217782649107 9.317175976009686 -0.8000000000000134
    vertex 14.799999999999999 7.000000000000003 -0.8000000000000134
  endloop
endfacet
facet normal -0.0 -0.0 1.0
  outer loop
    vertex 13.46217782649108 -9.317175976009674 -0.8000000000000134
    vertex 12.317521000000005 -7.000000000000001 -0.8000000000000134
    vertex 12.22093832649108 -7.167286097648291 -0.8000000000000134
  endloop
endfacet
facet normal -0.0 -0.0 1.0
  outer loop
    vertex 12.317521000000005 -7.000000000000001 -0.8000000000000134
    vertex 13.46217782649108 -9.317175976009674 -0.8000000000000134
    vertex 14.799999999999999 -7.000000000000004 -0.8000000000000134
  endloop
endfacet
facet normal -0.0 -0.0 1.0
  outer loop
    vertex 11.900000000000004 6.870468203356546 -0.8000000000000134
    vertex 0.09658267350892533 14.1672860976483 -0.8000000000000134
    vertex -2.996214387707141e-15 13.740936406713095 -0.8000000000000134
  endloop
endfacet
facet normal -0.0 -0.0 1.0
  outer loop
    vertex 0.09658267350892533 14.1672860976483 -0.8000000000000134
    vertex 11.900000000000004 6.870468203356546 -0.8000000000000134
    vertex 12.220938326491071 7.167286097648299 -0.8000000000000134
  endloop
endfacet
facet normal -0.0 -0.0 1.0
  outer loop
    vertex 12.220938326491071 7.167286097648299 -0.8000000000000134
    vertex 11.900000000000004 6.870468203356546 -0.8000000000000134
    vertex 11.900000000000006 -6.870468203356535 -0.8000000000000134
  endloop
endfacet
facet normal -0.0 -0.0 1.0
  outer loop
    vertex -13.462177826491066 -9.317175976009686 -0.8000000000000134
    vertex -12.317521 -7.000000000000004 -0.8000000000000134
    vertex -14.799999999999992 -7.000000000000007 -0.8000000000000134
  endloop
endfacet
facet normal -0.0 -0.0 1.0
  outer loop
    vertex -12.317521 -7.000000000000004 -0.8000000000000134
    vertex -13.462177826491066 -9.317175976009686 -0.8000000000000134
    vertex -12.22093832649107 -7.167286097648302 -0.8000000000000134
  endloop
endfacet
facet normal -0.0 -0.0 1.0
  outer loop
    vertex -12.317521 -7.000000000000004 -0.8000000000000134
    vertex -12.22093832649107 -7.167286097648302 -0.8000000000000134
    vertex -12.220938326491073 7.167286097648302 -0.8000000000000134
  endloop
endfacet
facet normal -0.0 -0.0 1.0
  outer loop
    vertex -12.220938326491073 7.167286097648302 -0.8000000000000134
    vertex -12.22093832649107 -7.167286097648302 -0.8000000000000134
    vertex -11.9 6.870468203356546 -0.8000000000000134
  endloop
endfacet
facet normal -0.0 -0.0 1.0
  outer loop
    vertex -12.220938326491073 7.167286097648302 -0.8000000000000134
    vertex -11.9 6.870468203356546 -0.8000000000000134
    vertex -0.09658267350893115 14.167286097648306 -0.8000000000000134
  endloop
endfacet
facet normal -0.0 -0.0 1.0
  outer loop
    vertex -0.09658267350893115 14.167286097648306 -0.8000000000000134
    vertex -11.9 6.870468203356546 -0.8000000000000134
    vertex -2.996214387707141e-15 13.740936406713095 -0.8000000000000134
  endloop
endfacet
facet normal -0.0 -0.0 1.0
  outer loop
    vertex -12.22093832649107 -7.167286097648302 -0.8000000000000134
    vertex -11.899999999999999 -6.870468203356548 -0.8000000000000134
    vertex -11.9 6.870468203356546 -0.8000000000000134
  endloop
endfacet
facet normal -0.0 -0.0 1.0
  outer loop
    vertex -11.899999999999999 -6.870468203356548 -0.8000000000000134
    vertex -12.22093832649107 -7.167286097648302 -0.8000000000000134
    vertex -0.0965826735089218 -14.1672860976483 -0.8000000000000134
  endloop
endfacet
facet normal -0.0 -0.0 1.0
  outer loop
    vertex -11.899999999999999 -6.870468203356548 -0.8000000000000134
    vertex -0.0965826735089218 -14.1672860976483 -0.8000000000000134
    vertex 1.4099832412739488e-14 -13.740936406713097 -0.8000000000000134
  endloop
endfacet
facet normal -0.0 -0.0 1.0
  outer loop
    vertex -12.317521000000005 6.999999999999998 -0.8000000000000134
    vertex -13.462177826491072 9.317175976009686 -0.8000000000000134
    vertex -14.799999999999999 6.999999999999998 -0.8000000000000134
  endloop
endfacet
facet normal -0.0 -0.0 1.0
  outer loop
    vertex -13.462177826491072 9.317175976009686 -0.8000000000000134
    vertex -12.317521000000005 6.999999999999998 -0.8000000000000134
    vertex -12.220938326491073 7.167286097648302 -0.8000000000000134
  endloop
endfacet
facet normal -0.0 -0.0 1.0
  outer loop
    vertex -12.220938326491073 7.167286097648302 -0.8000000000000134
    vertex -12.317521000000005 6.999999999999998 -0.8000000000000134
    vertex -12.317521 -7.000000000000004 -0.8000000000000134
  endloop
endfacet
facet normal 0.35355339059327523 0.6123724356957978 -0.707106781186544
  outer loop
    vertex -11.899999999999999 -6.870468203356548 -2.800000000000014
    vertex 1.1984857550828564e-14 -14.780166891254423 -3.700000000000011
    vertex -12.799999999999999 -7.390083445627219 -3.700000000000011
  endloop
endfacet
facet normal 0.35355339059327523 0.6123724356957978 -0.707106781186544
  outer loop
    vertex 1.1984857550828564e-14 -14.780166891254423 -3.700000000000011
    vertex -11.899999999999999 -6.870468203356548 -2.800000000000014
    vertex 1.4099832412739488e-14 -13.740936406713097 -2.800000000000014
  endloop
endfacet
facet normal -0.4999999999999996 -0.8660254037844388 0.0
  outer loop
    vertex -0.44999999999999213 -17.40711061606721 -0.8000000000000134
    vertex -14.849999999999996 -9.093266739736608 -2.800000000000014
    vertex -0.44999999999999213 -17.40711061606721 -2.800000000000014
  endloop
endfacet
facet normal -0.4999999999999996 -0.8660254037844388 0.0
  outer loop
    vertex -14.849999999999996 -9.093266739736608 -2.800000000000014
    vertex -0.44999999999999213 -17.40711061606721 -0.8000000000000134
    vertex -14.849999999999996 -9.093266739736608 -0.8000000000000134
  endloop
endfacet
facet normal -1.7233128504461202e-14 -2.98486541430903e-14 1.0
  outer loop
    vertex -1.205023170078848 -16.04743735487428 2.099999999999953
    vertex -12.85787757734859 -8.280428241468366 2.099999999999984
    vertex -13.294976829921053 -9.067299354874292 2.099999999999953
  endloop
endfacet
facet normal -1.7233128504461202e-14 -2.98486541430903e-14 1.0
  outer loop
    vertex -12.85787757734859 -8.280428241468366 2.099999999999984
    vertex -1.205023170078848 -16.04743735487428 2.099999999999953
    vertex -0.7421224226514067 -15.275462741468372 2.099999999999984
  endloop
endfacet
facet normal 0.4677207740391353 0.8101161443912257 0.3534814141209228
  outer loop
    vertex -12.707877577348588 -8.02062062033304 1.7999999999999896
    vertex -0.0965826735089218 -14.1672860976483 -0.8000000000000134
    vertex -12.22093832649107 -7.167286097648302 -0.8000000000000134
  endloop
endfacet
facet normal 0.4677207740391353 0.8101161443912257 0.3534814141209228
  outer loop
    vertex -0.0965826735089218 -14.1672860976483 -0.8000000000000134
    vertex -12.707877577348588 -8.02062062033304 1.7999999999999896
    vertex -0.5921224226514106 -15.015655120333042 1.7999999999999896
  endloop
endfacet
facet normal -0.866023824433203 0.4999990881611393 0.0019098042094314765
  outer loop
    vertex -12.22093832649107 -7.167286097648302 -0.8000000000000134
    vertex -13.462177826491066 -9.317175976009686 -0.8000000000000134
    vertex -12.707877577348588 -8.02062062033304 1.7999999999999896
  endloop
endfacet
facet normal 0.4999999999999997 0.8660254037844388 -0.0
  outer loop
    vertex -11.899999999999999 -6.870468203356548 -0.8000000000000134
    vertex 1.4099832412739488e-14 -13.740936406713097 -2.800000000000014
    vertex -11.899999999999999 -6.870468203356548 -2.800000000000014
  endloop
endfacet
facet normal 0.4999999999999997 0.8660254037844388 -0.0
  outer loop
    vertex 1.4099832412739488e-14 -13.740936406713097 -2.800000000000014
    vertex -11.899999999999999 -6.870468203356548 -0.8000000000000134
    vertex 1.4099832412739488e-14 -13.740936406713097 -0.8000000000000134
  endloop
endfacet
facet normal -0.4999999999999996 -0.8660254037844388 3.028045012174549e-14
  outer loop
    vertex -1.3550231700788407 -16.307244976009617 1.7999999999999579
    vertex -13.462177826491066 -9.317175976009686 -0.8000000000000134
    vertex -1.3378221735089157 -16.317175976009683 -0.8000000000000134
  endloop
endfacet
facet normal -0.4999999999999996 -0.8660254037844388 3.028045012174549e-14
  outer loop
    vertex -13.462177826491066 -9.317175976009686 -0.8000000000000134
    vertex -1.3550231700788407 -16.307244976009617 1.7999999999999579
    vertex -13.444976829921062 -9.327106976009617 1.7999999999999579
  endloop
endfacet
facet normal 0.3535533905932692 0.6123724356957874 0.707106781186556
  outer loop
    vertex -0.7421224226514067 -15.275462741468372 2.099999999999984
    vertex -12.707877577348588 -8.02062062033304 1.7999999999999896
    vertex -12.85787757734859 -8.280428241468366 2.099999999999984
  endloop
endfacet
facet normal 0.3535533905932692 0.6123724356957874 0.707106781186556
  outer loop
    vertex -12.707877577348588 -8.02062062033304 1.7999999999999896
    vertex -0.7421224226514067 -15.275462741468372 2.099999999999984
    vertex -0.5921224226514106 -15.015655120333042 1.7999999999999896
  endloop
endfacet
facet normal -0.35355339059328195 -0.6123724356958095 0.7071067811865306
  outer loop
    vertex -1.3550231700788407 -16.307244976009617 1.7999999999999579
    vertex -13.294976829921053 -9.067299354874292 2.099999999999953
    vertex -13.444976829921062 -9.327106976009617 1.7999999999999579
  endloop
endfacet
facet normal -0.35355339059328195 -0.6123724356958095 0.7071067811865306
  outer loop
    vertex -13.294976829921053 -9.067299354874292 2.099999999999953
    vertex -1.3550231700788407 -16.307244976009617 1.7999999999999579
    vertex -1.205023170078848 -16.04743735487428 2.099999999999953
  endloop
endfacet
facet normal 1.7233128504461227e-14 -2.984865414309024e-14 1.0
  outer loop
    vertex 1.2050231700788727 -16.047437354874287 2.099999999999953
    vertex 12.857877577348603 -8.280428241468353 2.099999999999984
    vertex 0.74212242265143 -15.275462741468377 2.099999999999984
  endloop
endfacet
facet normal 1.7233128504461227e-14 -2.984865414309024e-14 1.0
  outer loop
    vertex 12.857877577348603 -8.280428241468353 2.099999999999984
    vertex 1.2050231700788727 -16.047437354874287 2.099999999999953
    vertex 13.29497682992107 -9.067299354874276 2.099999999999953
  endloop
endfacet
facet normal 0.3535533905932724 -0.6123724356957906 -0.7071067811865516
  outer loop
    vertex 14.400000000000007 -8.313843876330598 -3.700000000000011
    vertex 0.4500000000000196 -17.407110616067218 -2.800000000000014
    vertex 1.9034773757198308e-14 -16.627687752661224 -3.700000000000011
  endloop
endfacet
facet normal 0.3535533905932724 -0.6123724356957906 -0.7071067811865516
  outer loop
    vertex 0.4500000000000196 -17.407110616067218 -2.800000000000014
    vertex 14.400000000000007 -8.313843876330598 -3.700000000000011
    vertex 14.850000000000007 -9.093266739736592 -2.800000000000014
  endloop
endfacet
facet normal 0.500000000000001 -0.866025403784438 0.0
  outer loop
    vertex 14.850000000000007 -9.093266739736592 -0.8000000000000134
    vertex 0.4500000000000196 -17.407110616067218 -2.800000000000014
    vertex 14.850000000000007 -9.093266739736592 -2.800000000000014
  endloop
endfacet
facet normal 0.500000000000001 -0.866025403784438 0.0
  outer loop
    vertex 0.4500000000000196 -17.407110616067218 -2.800000000000014
    vertex 14.850000000000007 -9.093266739736592 -0.8000000000000134
    vertex 0.4500000000000196 -17.407110616067218 -0.8000000000000134
  endloop
endfacet
facet normal 0.6546536707079749 -0.377964473009229 -0.6546536707079786
  outer loop
    vertex 15.300000000000002 -8.313843876330608 -2.800000000000014
    vertex 14.850000000000007 -9.093266739736592 -2.800000000000014
    vertex 14.400000000000007 -8.313843876330598 -3.700000000000011
  endloop
endfacet
facet normal -0.5000000000000011 0.866025403784438 -0.0
  outer loop
    vertex 1.4099832412739488e-14 -13.740936406713097 -0.8000000000000134
    vertex 11.900000000000006 -6.870468203356535 -2.800000000000014
    vertex 1.4099832412739488e-14 -13.740936406713097 -2.800000000000014
  endloop
endfacet
facet normal -0.5000000000000011 0.866025403784438 -0.0
  outer loop
    vertex 11.900000000000006 -6.870468203356535 -2.800000000000014
    vertex 1.4099832412739488e-14 -13.740936406713097 -0.8000000000000134
    vertex 11.900000000000006 -6.870468203356535 -0.8000000000000134
  endloop
endfacet
facet normal 0.5000000000000009 -0.8660254037844382 3.028045012174549e-14
  outer loop
    vertex 13.444976829921076 -9.327106976009606 1.7999999999999579
    vertex 1.3378221735089404 -16.31717597600969 -0.8000000000000134
    vertex 13.46217782649108 -9.317175976009674 -0.8000000000000134
  endloop
endfacet
facet normal 0.5000000000000009 -0.8660254037844382 3.028045012174549e-14
  outer loop
    vertex 1.3378221735089404 -16.31717597600969 -0.8000000000000134
    vertex 13.444976829921076 -9.327106976009606 1.7999999999999579
    vertex 1.3550231700788655 -16.307244976009624 1.7999999999999579
  endloop
endfacet
facet normal 0.8660238244332025 0.49999908816114 0.0019098042094313284
  outer loop
    vertex 12.22093832649108 -7.167286097648291 -0.8000000000000134
    vertex 12.707877577348599 -8.020620620333025 1.7999999999999896
    vertex 13.46217782649108 -9.317175976009674 -0.8000000000000134
  endloop
endfacet
facet normal 0.8717267545465649 0.48993404618585273 0.007556175995306114
  outer loop
    vertex 13.46217782649108 -9.317175976009674 -0.8000000000000134
    vertex 13.29497682992107 -9.067299354874276 2.099999999999953
    vertex 13.444976829921076 -9.327106976009606 1.7999999999999579
  endloop
endfacet
facet normal 0.8717267545465649 0.48993404618585273 0.007556175995306114
  outer loop
    vertex 13.29497682992107 -9.067299354874276 2.099999999999953
    vertex 13.46217782649108 -9.317175976009674 -0.8000000000000134
    vertex 12.707877577348599 -8.020620620333025 1.7999999999999896
  endloop
endfacet
facet normal 0.8717267545465649 0.48993404618585273 0.007556175995306114
  outer loop
    vertex 13.29497682992107 -9.067299354874276 2.099999999999953
    vertex 12.707877577348599 -8.020620620333025 1.7999999999999896
    vertex 12.857877577348603 -8.280428241468353 2.099999999999984
  endloop
endfacet
facet normal 0.866025403784437 -0.500000000000003 -0.0
  outer loop
    vertex 15.300000000000002 -8.313843876330608 -2.800000000000014
    vertex 14.850000000000007 -9.093266739736592 -0.8000000000000134
    vertex 14.850000000000007 -9.093266739736592 -2.800000000000014
  endloop
endfacet
facet normal 0.866025403784437 -0.500000000000003 -0.0
  outer loop
    vertex 14.850000000000007 -9.093266739736592 -0.8000000000000134
    vertex 15.300000000000002 -8.313843876330608 -2.800000000000014
    vertex 15.300000000000002 -8.313843876330608 -0.8000000000000134
  endloop
endfacet
facet normal -0.46772077403913664 0.8101161443912249 0.3534814141209224
  outer loop
    vertex 0.5921224226514324 -15.015655120333047 1.7999999999999896
    vertex 12.22093832649108 -7.167286097648291 -0.8000000000000134
    vertex 0.09658267350894366 -14.167286097648306 -0.8000000000000134
  endloop
endfacet
facet normal -0.46772077403913664 0.8101161443912249 0.3534814141209224
  outer loop
    vertex 12.22093832649108 -7.167286097648291 -0.8000000000000134
    vertex 0.5921224226514324 -15.015655120333047 1.7999999999999896
    vertex 12.707877577348599 -8.020620620333025 1.7999999999999896
  endloop
endfacet
facet normal 0.35355339059325486 -0.6123724356957604 0.7071067811865868
  outer loop
    vertex 1.3550231700788655 -16.307244976009624 1.7999999999999579
    vertex 13.29497682992107 -9.067299354874276 2.099999999999953
    vertex 1.2050231700788727 -16.047437354874287 2.099999999999953
  endloop
endfacet
facet normal 0.35355339059325486 -0.6123724356957604 0.7071067811865868
  outer loop
    vertex 13.29497682992107 -9.067299354874276 2.099999999999953
    vertex 1.3550231700788655 -16.307244976009624 1.7999999999999579
    vertex 13.444976829921076 -9.327106976009606 1.7999999999999579
  endloop
endfacet
facet normal -0.35355339059327107 0.6123724356957885 0.707106781186554
  outer loop
    vertex 0.74212242265143 -15.275462741468377 2.099999999999984
    vertex 12.707877577348599 -8.020620620333025 1.7999999999999896
    vertex 0.5921224226514324 -15.015655120333047 1.7999999999999896
  endloop
endfacet
facet normal -0.35355339059327107 0.6123724356957885 0.707106781186554
  outer loop
    vertex 12.707877577348599 -8.020620620333025 1.7999999999999896
    vertex 0.74212242265143 -15.275462741468377 2.099999999999984
    vertex 12.857877577348603 -8.280428241468353 2.099999999999984
  endloop
endfacet
facet normal -0.3535533905932752 0.6123724356957954 -0.7071067811865461
  outer loop
    vertex 1.4099832412739488e-14 -13.740936406713097 -2.800000000000014
    vertex 12.80000000000001 -7.390083445627197 -3.700000000000011
    vertex 1.1984857550828564e-14 -14.780166891254423 -3.700000000000011
  endloop
endfacet
facet normal -0.3535533905932752 0.6123724356957954 -0.7071067811865461
  outer loop
    vertex 12.80000000000001 -7.390083445627197 -3.700000000000011
    vertex 1.4099832412739488e-14 -13.740936406713097 -2.800000000000014
    vertex 11.900000000000006 -6.870468203356535 -2.800000000000014
  endloop
endfacet
facet normal 0.7071067811865426 -0.0 0.7071067811865525
  outer loop
    vertex 14.799999999999919 -6.9801380000000055 1.7999999999999579
    vertex 14.49999999999992 6.980137999999997 2.099999999999953
    vertex 14.49999999999992 -6.980137999999997 2.099999999999953
  endloop
endfacet
facet normal 0.7071067811865426 -0.0 0.7071067811865525
  outer loop
    vertex 14.49999999999992 6.980137999999997 2.099999999999953
    vertex 14.799999999999919 -6.9801380000000055 1.7999999999999579
    vertex 14.799999999999919 6.9801380000000055 1.7999999999999579
  endloop
endfacet
facet normal -1.1360381037621068e-15 -0.999998176322278 0.0019098042094310306
  outer loop
    vertex 13.300000000000013 -6.99503450000001 1.7999999999999896
    vertex 12.317521000000005 -7.000000000000001 -0.8000000000000134
    vertex 14.799999999999999 -7.000000000000004 -0.8000000000000134
  endloop
endfacet
facet normal -1.0 -2.0522374888295193e-16 0.0
  outer loop
    vertex 11.900000000000004 6.870468203356546 -0.8000000000000134
    vertex 11.900000000000006 -6.870468203356535 -2.800000000000014
    vertex 11.900000000000006 -6.870468203356535 -0.8000000000000134
  endloop
endfacet
facet normal -1.0 -2.0522374888295193e-16 0.0
  outer loop
    vertex 11.900000000000006 -6.870468203356535 -2.800000000000014
    vertex 11.900000000000004 6.870468203356546 -0.8000000000000134
    vertex 11.900000000000004 6.870468203356546 -2.800000000000014
  endloop
endfacet
facet normal 3.4466257008922265e-14 -0.0 1.0
  outer loop
    vertex 14.49999999999992 -6.980137999999997 2.099999999999953
    vertex 13.600000000000012 6.9950345000000125 2.099999999999984
    vertex 13.600000000000012 -6.9950345000000125 2.099999999999984
  endloop
endfacet
facet normal 3.4466257008922265e-14 -0.0 1.0
  outer loop
    vertex 13.600000000000012 6.9950345000000125 2.099999999999984
    vertex 14.49999999999992 -6.980137999999997 2.099999999999953
    vertex 14.49999999999992 6.980137999999997 2.099999999999953
  endloop
endfacet
facet normal -0.9354415480782715 -1.3055558175811903e-18 0.3534814141209223
  outer loop
    vertex 13.300000000000013 -6.99503450000001 1.7999999999999896
    vertex 12.317521000000005 7.000000000000001 -0.8000000000000134
    vertex 12.317521000000005 -7.000000000000001 -0.8000000000000134
  endloop
endfacet
facet normal -0.9354415480782715 -1.3055558175811903e-18 0.3534814141209223
  outer loop
    vertex 12.317521000000005 7.000000000000001 -0.8000000000000134
    vertex 13.300000000000013 -6.99503450000001 1.7999999999999896
    vertex 13.300000000000013 6.995034500000009 1.7999999999999896
  endloop
endfacet
facet normal 0.011561222499712644 -0.9999046304746605 0.0075543424363100865
  outer loop
    vertex 14.799999999999919 -6.9801380000000055 1.7999999999999579
    vertex 13.300000000000013 -6.99503450000001 1.7999999999999896
    vertex 14.799999999999999 -7.000000000000004 -0.8000000000000134
  endloop
endfacet
facet normal 0.011561222499712644 -0.9999046304746605 0.0075543424363100865
  outer loop
    vertex 13.300000000000013 -6.99503450000001 1.7999999999999896
    vertex 14.799999999999919 -6.9801380000000055 1.7999999999999579
    vertex 14.49999999999992 -6.980137999999997 2.099999999999953
  endloop
endfacet
facet normal 0.011561222499712644 -0.9999046304746605 0.0075543424363100865
  outer loop
    vertex 13.300000000000013 -6.99503450000001 1.7999999999999896
    vertex 14.49999999999992 -6.980137999999997 2.099999999999953
    vertex 13.600000000000012 -6.9950345000000125 2.099999999999984
  endloop
endfacet
facet normal -0.7071067811865418 -1.6498234745209908e-32 0.7071067811865533
  outer loop
    vertex 13.600000000000012 -6.9950345000000125 2.099999999999984
    vertex 13.300000000000013 6.995034500000009 1.7999999999999896
    vertex 13.300000000000013 -6.99503450000001 1.7999999999999896
  endloop
endfacet
facet normal -0.7071067811865418 -1.6498234745209908e-32 0.7071067811865533
  outer loop
    vertex 13.300000000000013 6.995034500000009 1.7999999999999896
    vertex 13.600000000000012 -6.9950345000000125 2.099999999999984
    vertex 13.600000000000012 6.9950345000000125 2.099999999999984
  endloop
endfacet
facet normal -0.7071067811865454 -2.1180212990102095e-16 -0.7071067811865497
  outer loop
    vertex 12.800000000000004 7.390083445627214 -3.700000000000011
    vertex 11.900000000000006 -6.870468203356535 -2.800000000000014
    vertex 11.900000000000004 6.870468203356546 -2.800000000000014
  endloop
endfacet
facet normal -0.7071067811865454 -2.1180212990102095e-16 -0.7071067811865497
  outer loop
    vertex 11.900000000000006 -6.870468203356535 -2.800000000000014
    vertex 12.800000000000004 7.390083445627214 -3.700000000000011
    vertex 12.80000000000001 -7.390083445627197 -3.700000000000011
  endloop
endfacet
facet normal 0.7071067811865476 5.867766610099148e-17 -0.7071067811865476
  outer loop
    vertex 14.400000000000007 -8.313843876330598 -3.700000000000011
    vertex 15.300000000000002 8.313843876330608 -2.800000000000014
    vertex 15.300000000000002 -8.313843876330608 -2.800000000000014
  endloop
endfacet
facet normal 0.7071067811865476 5.867766610099148e-17 -0.7071067811865476
  outer loop
    vertex 15.300000000000002 8.313843876330608 -2.800000000000014
    vertex 14.400000000000007 -8.313843876330598 -3.700000000000011
    vertex 14.400000000000004 8.313843876330608 -3.700000000000011
  endloop
endfacet
facet normal 1.0 -2.230003865153089e-32 3.036886981205462e-14
  outer loop
    vertex 14.799999999999999 7.000000000000003 -0.8000000000000134
    vertex 14.799999999999919 -6.9801380000000055 1.7999999999999579
    vertex 14.799999999999999 -7.000000000000004 -0.8000000000000134
  endloop
endfacet
facet normal 1.0 -2.230003865153089e-32 3.036886981205462e-14
  outer loop
    vertex 14.799999999999919 -6.9801380000000055 1.7999999999999579
    vertex 14.799999999999999 7.000000000000003 -0.8000000000000134
    vertex 14.799999999999919 6.9801380000000055 1.7999999999999579
  endloop
endfacet
facet normal 1.0 -0.0 -0.0
  outer loop
    vertex 15.300000000000002 8.313843876330608 -2.800000000000014
    vertex 15.300000000000002 -8.313843876330608 -0.8000000000000134
    vertex 15.300000000000002 -8.313843876330608 -2.800000000000014
  endloop
endfacet
facet normal 1.0 -0.0 -0.0
  outer loop
    vertex 15.300000000000002 -8.313843876330608 -0.8000000000000134
    vertex 15.300000000000002 8.313843876330608 -2.800000000000014
    vertex 15.300000000000002 8.313843876330608 -0.8000000000000134
  endloop
endfacet
facet normal 0.8717267545465655 -0.48993404618585146 0.007556175995305948
  outer loop
    vertex 13.46217782649107 9.317175976009686 -0.8000000000000134
    vertex 12.857877577348594 8.280428241468366 2.099999999999984
    vertex 12.707877577348592 8.020620620333037 1.7999999999999896
  endloop
endfacet
facet normal 0.8717267545465655 -0.48993404618585146 0.007556175995305948
  outer loop
    vertex 12.857877577348594 8.280428241468366 2.099999999999984
    vertex 13.46217782649107 9.317175976009686 -0.8000000000000134
    vertex 13.294976829921058 9.067299354874287 2.099999999999953
  endloop
endfacet
facet normal 0.8717267545465655 -0.48993404618585146 0.007556175995305948
  outer loop
    vertex 13.294976829921058 9.067299354874287 2.099999999999953
    vertex 13.46217782649107 9.317175976009686 -0.8000000000000134
    vertex 13.444976829921064 9.327106976009615 1.7999999999999579
  endloop
endfacet
facet normal 0.49999999999999983 0.8660254037844389 3.0782272089618944e-14
  outer loop
    vertex 1.3550231700788458 16.307244976009617 1.7999999999999579
    vertex 13.46217782649107 9.317175976009686 -0.8000000000000134
    vertex 1.3378221735089206 16.317175976009683 -0.8000000000000134
  endloop
endfacet
facet normal 0.49999999999999983 0.8660254037844389 3.0782272089618944e-14
  outer loop
    vertex 13.46217782649107 9.317175976009686 -0.8000000000000134
    vertex 1.3550231700788458 16.307244976009617 1.7999999999999579
    vertex 13.444976829921064 9.327106976009615 1.7999999999999579
  endloop
endfacet
facet normal 0.35355339059326774 0.6123724356957846 0.7071067811865592
  outer loop
    vertex 13.294976829921058 9.067299354874287 2.099999999999953
    vertex 1.3550231700788458 16.307244976009617 1.7999999999999579
    vertex 1.2050231700788536 16.04743735487428 2.099999999999953
  endloop
endfacet
facet normal 0.35355339059326774 0.6123724356957846 0.7071067811865592
  outer loop
    vertex 1.3550231700788458 16.307244976009617 1.7999999999999579
    vertex 13.294976829921058 9.067299354874287 2.099999999999953
    vertex 13.444976829921064 9.327106976009615 1.7999999999999579
  endloop
endfacet
facet normal 0.8660254037844354 0.5000000000000057 -0.0
  outer loop
    vertex 14.849999999999996 9.093266739736606 -2.800000000000014
    vertex 15.300000000000002 8.313843876330608 -0.8000000000000134
    vertex 15.300000000000002 8.313843876330608 -2.800000000000014
  endloop
endfacet
facet normal 0.8660254037844354 0.5000000000000057 -0.0
  outer loop
    vertex 15.300000000000002 8.313843876330608 -0.8000000000000134
    vertex 14.849999999999996 9.093266739736606 -2.800000000000014
    vertex 14.849999999999996 9.093266739736606 -0.8000000000000134
  endloop
endfacet
facet normal 1.723312850446134e-14 2.984865414309053e-14 1.0
  outer loop
    vertex 12.857877577348594 8.280428241468366 2.099999999999984
    vertex 1.2050231700788536 16.04743735487428 2.099999999999953
    vertex 0.7421224226514103 15.275462741468372 2.099999999999984
  endloop
endfacet
facet normal 1.723312850446134e-14 2.984865414309053e-14 1.0
  outer loop
    vertex 1.2050231700788536 16.04743735487428 2.099999999999953
    vertex 12.857877577348594 8.280428241468366 2.099999999999984
    vertex 13.294976829921058 9.067299354874287 2.099999999999953
  endloop
endfacet
facet normal -0.35355339059326996 -0.6123724356957886 0.7071067811865546
  outer loop
    vertex 12.707877577348592 8.020620620333037 1.7999999999999896
    vertex 0.7421224226514103 15.275462741468372 2.099999999999984
    vertex 0.5921224226514141 15.015655120333042 1.7999999999999896
  endloop
endfacet
facet normal -0.35355339059326996 -0.6123724356957886 0.7071067811865546
  outer loop
    vertex 0.7421224226514103 15.275462741468372 2.099999999999984
    vertex 12.707877577348592 8.020620620333037 1.7999999999999896
    vertex 12.857877577348594 8.280428241468366 2.099999999999984
  endloop
endfacet
facet normal -0.46772077403913537 -0.8101161443912254 0.3534814141209227
  outer loop
    vertex 12.707877577348592 8.020620620333037 1.7999999999999896
    vertex 0.09658267350892533 14.1672860976483 -0.8000000000000134
    vertex 12.220938326491071 7.167286097648299 -0.8000000000000134
  endloop
endfacet
facet normal -0.46772077403913537 -0.8101161443912254 0.3534814141209227
  outer loop
    vertex 0.09658267350892533 14.1672860976483 -0.8000000000000134
    vertex 12.707877577348592 8.020620620333037 1.7999999999999896
    vertex 0.5921224226514141 15.015655120333042 1.7999999999999896
  endloop
endfacet
facet normal 0.8660238244332034 -0.4999990881611388 0.0019098042094312664
  outer loop
    vertex 13.46217782649107 9.317175976009686 -0.8000000000000134
    vertex 12.707877577348592 8.020620620333037 1.7999999999999896
    vertex 12.220938326491071 7.167286097648299 -0.8000000000000134
  endloop
endfacet
facet normal -0.35355339059326923 -0.6123724356957869 -0.7071067811865565
  outer loop
    vertex 1.233735336114705e-15 14.780166891254423 -3.700000000000011
    vertex 11.900000000000004 6.870468203356546 -2.800000000000014
    vertex -2.996214387707141e-15 13.740936406713095 -2.800000000000014
  endloop
endfacet
facet normal -0.35355339059326923 -0.6123724356957869 -0.7071067811865565
  outer loop
    vertex 11.900000000000004 6.870468203356546 -2.800000000000014
    vertex 1.233735336114705e-15 14.780166891254423 -3.700000000000011
    vertex 12.800000000000004 7.390083445627214 -3.700000000000011
  endloop
endfacet
facet normal -0.4999999999999999 -0.8660254037844387 0.0
  outer loop
    vertex 11.900000000000004 6.870468203356546 -0.8000000000000134
    vertex -2.996214387707141e-15 13.740936406713095 -2.800000000000014
    vertex 11.900000000000004 6.870468203356546 -2.800000000000014
  endloop
endfacet
facet normal -0.4999999999999999 -0.8660254037844387 0.0
  outer loop
    vertex -2.996214387707141e-15 13.740936406713095 -2.800000000000014
    vertex 11.900000000000004 6.870468203356546 -0.8000000000000134
    vertex -2.996214387707141e-15 13.740936406713095 -0.8000000000000134
  endloop
endfacet
endsolid ring v2 exploded
